<svg width="202" height="73" viewBox="0 0 202 73" fill="none" xmlns="http://www.w3.org/2000/svg">
<rect x="0.5" y="0.5" width="201" height="72" rx="36" stroke="#163BFF"/>
<path fill-rule="evenodd" clip-rule="evenodd" d="M120.467 19.3805H122.18V24.6517L125.663 19.3805H127.318V27.3156H125.605V22.0444L122.111 27.3156H120.467V19.3805ZM123.893 18.9271C123.147 18.9271 122.598 18.7646 122.248 18.4397C121.898 18.1071 121.723 17.6272 121.723 17H123.162C123.162 17.3627 123.223 17.6121 123.344 17.7482C123.466 17.8842 123.649 17.9522 123.893 17.9522C124.136 17.9522 124.319 17.8842 124.441 17.7482C124.563 17.6121 124.623 17.3627 124.623 17H126.062C126.062 17.6272 125.887 18.1071 125.537 18.4397C125.187 18.7646 124.639 18.9271 123.893 18.9271ZM77.0771 19.3805H82.6724V20.7862H78.8014V22.5546H82.3299V23.9149H78.8014V25.91H82.6724V27.3156H77.0771V19.3805ZM83.4731 25.91H84.3638C84.478 25.6455 84.5731 25.3281 84.6492 24.9578C84.7254 24.5799 84.7863 24.1831 84.832 23.7675C84.8776 23.3443 84.9119 22.9135 84.9347 22.4752C84.9576 22.0293 84.969 21.6023 84.969 21.1943V19.3805H90.5985V25.91H91.4664V28.7893H89.9362V27.3156H85.0032V28.7893H83.4731V25.91ZM88.8857 25.91V20.7862H86.5905V21.421C86.5905 22.4563 86.541 23.3292 86.442 24.0396C86.3431 24.7499 86.2022 25.3734 86.0195 25.91H88.8857ZM94.4353 19.3805H92.7224V27.3156H94.3668L97.861 22.0444V27.3156H99.5738V19.3805H97.9181L94.4353 24.6517V19.3805ZM101.398 19.3805H103.111V22.5319H106.537V19.3805H108.25V27.3156H106.537V23.9375H103.111V27.3156H101.398V19.3805ZM111.787 19.3805H110.074V27.3156H112.929C113.469 27.3156 113.941 27.2552 114.345 27.1342C114.748 27.0133 115.079 26.8433 115.338 26.6241C115.604 26.3974 115.802 26.1291 115.932 25.8193C116.061 25.5019 116.126 25.1505 116.126 24.765C116.126 24.3796 116.061 24.032 115.932 23.7221C115.802 23.4047 115.604 23.1365 115.338 22.9173C115.079 22.6906 114.748 22.5168 114.345 22.3959C113.941 22.2749 113.469 22.2145 112.929 22.2145H111.787V19.3805ZM114.036 25.6039C113.793 25.8079 113.366 25.91 112.757 25.91H111.787V23.6201H112.757C113.366 23.6201 113.793 23.7222 114.036 23.9262C114.287 24.1302 114.413 24.4099 114.413 24.765C114.413 25.1202 114.287 25.3999 114.036 25.6039ZM118.638 19.3805H116.925V27.3156H118.638V19.3805ZM135.08 19.3805H131.997V27.3156H133.71V24.595H135.08C136.161 24.595 136.965 24.3607 137.49 23.8922C138.015 23.4161 138.278 22.7813 138.278 21.9878C138.278 21.1943 138.015 20.5632 137.49 20.0947C136.965 19.6186 136.161 19.3805 135.08 19.3805ZM136.188 22.8833C135.945 23.0873 135.518 23.1894 134.909 23.1894H133.71V20.7862H134.909C135.518 20.7862 135.945 20.892 136.188 21.1036C136.439 21.3076 136.565 21.6023 136.565 21.9878C136.565 22.3807 136.439 22.6793 136.188 22.8833ZM139.591 19.3805H145.187V20.7862H141.316V22.5546H144.844V23.9149H141.316V25.91H145.187V27.3156H139.591V19.3805ZM152.268 19.3805H146.673V27.3156H152.268V25.91H148.397V23.9149H151.925V22.5546H148.397V20.7862H152.268V19.3805ZM156.952 27.4516C156.427 27.4516 155.944 27.3761 155.502 27.2249C155.068 27.0738 154.691 26.8395 154.372 26.5221C154.052 26.1971 153.801 25.7777 153.618 25.2638C153.443 24.7499 153.355 24.1302 153.355 23.4047V23.178C153.355 22.4828 153.447 21.8895 153.629 21.3983C153.82 20.8995 154.075 20.4914 154.394 20.174C154.722 19.8566 155.102 19.6224 155.536 19.4712C155.978 19.3201 156.45 19.2445 156.952 19.2445C157.401 19.2445 157.824 19.2974 158.22 19.4032C158.616 19.509 158.962 19.6753 159.259 19.902C159.563 20.1211 159.807 20.4045 159.99 20.7522C160.18 21.0998 160.29 21.5117 160.321 21.9878H158.539C158.456 21.5343 158.273 21.2018 157.991 20.9902C157.71 20.7786 157.363 20.6728 156.952 20.6728C156.716 20.6728 156.488 20.7144 156.267 20.7975C156.054 20.8806 155.864 21.0204 155.696 21.2169C155.529 21.4134 155.392 21.6704 155.285 21.9878C155.186 22.3052 155.137 22.7019 155.137 23.178V23.4047C155.137 23.9035 155.19 24.3229 155.296 24.663C155.403 24.9955 155.54 25.2638 155.708 25.4679C155.883 25.6644 156.077 25.8079 156.29 25.8986C156.511 25.9818 156.731 26.0233 156.952 26.0233C157.386 26.0233 157.744 25.9137 158.026 25.6946C158.307 25.4679 158.479 25.1391 158.539 24.7084H160.321C160.283 25.2071 160.172 25.6303 159.99 25.978C159.807 26.3256 159.567 26.609 159.27 26.8282C158.973 27.0473 158.627 27.206 158.231 27.3043C157.835 27.4025 157.409 27.4516 156.952 27.4516ZM160.807 20.7862H163.377V27.3156H165.09V20.7862H167.659V19.3805H160.807V20.7862ZM168.797 19.3805H171.88C172.961 19.3805 173.764 19.6186 174.289 20.0947C174.815 20.5632 175.077 21.1943 175.077 21.9878C175.077 22.7813 174.815 23.4161 174.289 23.8922C173.764 24.3607 172.961 24.595 171.88 24.595H170.51V27.3156H168.797V19.3805ZM171.709 23.1894C172.318 23.1894 172.744 23.0873 172.987 22.8833C173.239 22.6793 173.364 22.3807 173.364 21.9878C173.364 21.6023 173.239 21.3076 172.987 21.1036C172.744 20.892 172.318 20.7862 171.709 20.7862H170.51V23.1894H171.709ZM118.014 33.9667H119.726V39.2379L123.209 33.9667H124.865V41.9018H123.152V36.6306L119.658 41.9018H118.014V33.9667ZM121.439 33.5133C120.693 33.5133 120.145 33.3508 119.795 33.0258C119.445 32.6933 119.27 32.2134 119.27 31.5862H120.709C120.709 31.9489 120.769 32.1983 120.891 32.3343C121.013 32.4704 121.196 32.5384 121.439 32.5384C121.683 32.5384 121.866 32.4704 121.987 32.3343C122.109 32.1983 122.17 31.9489 122.17 31.5862H123.609C123.609 32.2134 123.434 32.6933 123.084 33.0258C122.733 33.3508 122.185 33.5133 121.439 33.5133ZM88.0969 42.0378C87.5944 42.0378 87.1149 41.9622 86.6581 41.8111C86.2089 41.66 85.8093 41.4219 85.4591 41.0969C85.1165 40.772 84.8425 40.3563 84.6369 39.85C84.4314 39.3361 84.3286 38.7164 84.3286 37.9909V37.7642C84.3286 37.0689 84.4314 36.4757 84.6369 35.9845C84.8425 35.4857 85.1165 35.0776 85.4591 34.7602C85.8093 34.4428 86.2089 34.2085 86.6581 34.0574C87.1149 33.9062 87.5944 33.8307 88.0969 33.8307C88.5993 33.8307 89.0751 33.9062 89.5243 34.0574C89.981 34.2085 90.3807 34.4428 90.7232 34.7602C91.0734 35.0776 91.3513 35.4857 91.5568 35.9845C91.7624 36.4757 91.8651 37.0689 91.8651 37.7642V37.9909C91.8651 38.7164 91.7624 39.3361 91.5568 39.85C91.3513 40.3563 91.0734 40.772 90.7232 41.0969C90.3807 41.4219 89.981 41.66 89.5243 41.8111C89.0751 41.9622 88.5993 42.0378 88.0969 42.0378ZM88.0969 40.6095C88.3557 40.6095 88.6031 40.5679 88.8391 40.4848C89.0827 40.3941 89.2959 40.2468 89.4786 40.0427C89.6613 39.8387 89.8059 39.5704 89.9125 39.2379C90.0267 38.9053 90.0838 38.4897 90.0838 37.9909V37.7642C90.0838 37.2957 90.0267 36.9027 89.9125 36.5853C89.8059 36.2679 89.6613 36.0109 89.4786 35.8144C89.2959 35.618 89.0827 35.4781 88.8391 35.395C88.6031 35.3043 88.3557 35.259 88.0969 35.259C87.8381 35.259 87.5868 35.3043 87.3432 35.395C87.1072 35.4781 86.8979 35.618 86.7152 35.8144C86.5325 36.0109 86.384 36.2679 86.2698 36.5853C86.1633 36.9027 86.11 37.2957 86.11 37.7642V37.9909C86.11 38.4897 86.1633 38.9053 86.2698 39.2379C86.384 39.5704 86.5325 39.8387 86.7152 40.0427C86.8979 40.2468 87.1072 40.3941 87.3432 40.4848C87.5868 40.5679 87.8381 40.6095 88.0969 40.6095ZM77.0771 33.9667H80.1603C81.2413 33.9667 82.0444 34.2048 82.5697 34.6809C83.0949 35.1494 83.3576 35.7804 83.3576 36.5739C83.3576 37.3674 83.0949 38.0023 82.5697 38.4784C82.0444 38.9469 81.2413 39.1812 80.1603 39.1812H78.79V41.9018H77.0771V33.9667ZM79.989 37.7755C80.598 37.7755 81.0243 37.6735 81.2679 37.4695C81.5191 37.2654 81.6447 36.9669 81.6447 36.5739C81.6447 36.1885 81.5191 35.8938 81.2679 35.6897C81.0243 35.4781 80.598 35.3723 79.989 35.3723H78.79V37.7755H79.989ZM95.1511 41.8111C95.5926 41.9622 96.0761 42.0378 96.6013 42.0378C97.0581 42.0378 97.4844 41.9887 97.8802 41.8904C98.2761 41.7922 98.6225 41.6335 98.9194 41.4143C99.2163 41.1952 99.4561 40.9118 99.6388 40.5642C99.8215 40.2165 99.9319 39.7933 99.9699 39.2945H98.1886C98.1277 39.7253 97.9564 40.054 97.6747 40.2808C97.393 40.4999 97.0352 40.6095 96.6013 40.6095C96.3806 40.6095 96.1598 40.5679 95.939 40.4848C95.7259 40.3941 95.5317 40.2505 95.3567 40.054C95.1892 39.85 95.0522 39.5817 94.9456 39.2492C94.839 38.9091 94.7857 38.4897 94.7857 37.9909V37.7642C94.7857 37.2881 94.8352 36.8913 94.9342 36.5739C95.0407 36.2565 95.1778 35.9996 95.3452 35.8031C95.5127 35.6066 95.703 35.4668 95.9162 35.3837C96.137 35.3006 96.3653 35.259 96.6013 35.259C97.0124 35.259 97.3588 35.3648 97.6404 35.5764C97.9221 35.788 98.1048 36.1205 98.1886 36.5739H99.9699C99.9395 36.0978 99.8291 35.686 99.6388 35.3383C99.4561 34.9907 99.2125 34.7073 98.908 34.4881C98.6111 34.2614 98.2647 34.0952 97.8688 33.9894C97.473 33.8836 97.0505 33.8307 96.6013 33.8307C96.0989 33.8307 95.6269 33.9062 95.1854 34.0574C94.7515 34.2085 94.3708 34.4428 94.0435 34.7602C93.7237 35.0776 93.4687 35.4857 93.2784 35.9845C93.0957 36.4757 93.0044 37.0689 93.0044 37.7642V37.9909C93.0044 38.7164 93.0919 39.3361 93.267 39.85C93.4497 40.3639 93.7009 40.7833 94.0206 41.1083C94.3404 41.4257 94.7172 41.66 95.1511 41.8111ZM104.597 42.0378C104.072 42.0378 103.588 41.9622 103.147 41.8111C102.713 41.66 102.336 41.4257 102.016 41.1083C101.696 40.7833 101.445 40.3639 101.262 39.85C101.087 39.3361 101 38.7164 101 37.9909V37.7642C101 37.0689 101.091 36.4757 101.274 35.9845C101.464 35.4857 101.719 35.0776 102.039 34.7602C102.366 34.4428 102.747 34.2085 103.181 34.0574C103.622 33.9062 104.094 33.8307 104.597 33.8307C105.046 33.8307 105.468 33.8836 105.864 33.9894C106.26 34.0952 106.607 34.2614 106.903 34.4881C107.208 34.7073 107.452 34.9907 107.634 35.3383C107.825 35.686 107.935 36.0978 107.965 36.5739H106.184C106.1 36.1205 105.918 35.788 105.636 35.5764C105.354 35.3648 105.008 35.259 104.597 35.259C104.361 35.259 104.132 35.3006 103.912 35.3837C103.699 35.4668 103.508 35.6066 103.341 35.8031C103.173 35.9996 103.036 36.2565 102.93 36.5739C102.831 36.8913 102.781 37.2881 102.781 37.7642V37.9909C102.781 38.4897 102.834 38.9091 102.941 39.2492C103.048 39.5817 103.185 39.85 103.352 40.054C103.527 40.2505 103.721 40.3941 103.935 40.4848C104.155 40.5679 104.376 40.6095 104.597 40.6095C105.031 40.6095 105.389 40.4999 105.67 40.2808C105.952 40.054 106.123 39.7253 106.184 39.2945H107.965C107.927 39.7933 107.817 40.2165 107.634 40.5642C107.452 40.9118 107.212 41.1952 106.915 41.4143C106.618 41.6335 106.272 41.7922 105.876 41.8904C105.48 41.9887 105.054 42.0378 104.597 42.0378ZM111.051 33.9667H109.338V41.9018H110.982L114.476 36.6306V41.9018H116.189V33.9667H114.534L111.051 39.2379V33.9667ZM128.494 41.8111C128.935 41.9622 129.418 42.0378 129.944 42.0378C130.401 42.0378 130.827 41.9887 131.223 41.8904C131.619 41.7922 131.965 41.6335 132.262 41.4143C132.559 41.1952 132.799 40.9118 132.981 40.5642C133.164 40.2165 133.274 39.7933 133.312 39.2945H131.531C131.47 39.7253 131.299 40.054 131.017 40.2808C130.735 40.4999 130.378 40.6095 129.944 40.6095C129.723 40.6095 129.502 40.5679 129.281 40.4848C129.068 40.3941 128.874 40.2505 128.699 40.054C128.532 39.85 128.395 39.5817 128.288 39.2492C128.181 38.9091 128.128 38.4897 128.128 37.9909V37.7642C128.128 37.2881 128.178 36.8913 128.277 36.5739C128.383 36.2565 128.52 35.9996 128.688 35.8031C128.855 35.6066 129.045 35.4668 129.259 35.3837C129.479 35.3006 129.708 35.259 129.944 35.259C130.355 35.259 130.701 35.3648 130.983 35.5764C131.265 35.788 131.447 36.1205 131.531 36.5739H133.312C133.282 36.0978 133.172 35.686 132.981 35.3383C132.799 34.9907 132.555 34.7073 132.25 34.4881C131.954 34.2614 131.607 34.0952 131.211 33.9894C130.815 33.8836 130.393 33.8307 129.944 33.8307C129.441 33.8307 128.969 33.9062 128.528 34.0574C128.094 34.2085 127.713 34.4428 127.386 34.7602C127.066 35.0776 126.811 35.4857 126.621 35.9845C126.438 36.4757 126.347 37.0689 126.347 37.7642V37.9909C126.347 38.7164 126.434 39.3361 126.609 39.85C126.792 40.3639 127.043 40.7833 127.363 41.1083C127.683 41.4257 128.06 41.66 128.494 41.8111ZM134.685 33.9667H136.398V37.1974H137.083L139.641 33.9667H141.536L138.396 37.7189L141.65 41.9018H139.641L137.083 38.4444H136.398V41.9018H134.685V33.9667ZM144.505 33.9667H142.792V41.9018H144.436L147.93 36.6306V41.9018H149.643V33.9667H147.987L144.505 39.2379V33.9667ZM153.466 37.7642L150.897 33.9667H152.815L154.574 36.5626L156.343 33.9667H158.205L155.658 37.7302L158.319 41.9018H156.389L154.539 38.9318L152.678 41.9018H150.782L153.466 37.7642ZM96.6611 56.2C96.1587 56.2 95.6791 56.1244 95.2223 55.9732C94.7732 55.8221 94.3735 55.584 94.0233 55.2591C93.6807 54.9341 93.4067 54.5185 93.2011 54.0121C92.9956 53.4982 92.8928 52.8786 92.8928 52.1531V51.9263C92.8928 51.2311 92.9956 50.6378 93.2011 50.1466C93.4067 49.6478 93.6807 49.2397 94.0233 48.9223C94.3735 48.6049 94.7732 48.3707 95.2223 48.2195C95.6791 48.0684 96.1587 47.9928 96.6611 47.9928C97.1635 47.9928 97.6393 48.0684 98.0885 48.2195C98.5452 48.3707 98.9449 48.6049 99.2874 48.9223C99.6376 49.2397 99.9155 49.6478 100.121 50.1466C100.327 50.6378 100.429 51.2311 100.429 51.9263V52.1531C100.429 52.8786 100.327 53.4982 100.121 54.0121C99.9155 54.5185 99.6376 54.9341 99.2874 55.2591C98.9449 55.584 98.5452 55.8221 98.0885 55.9732C97.6393 56.1244 97.1635 56.2 96.6611 56.2ZM96.6611 54.7716C96.9199 54.7716 97.1673 54.7301 97.4033 54.6469C97.6469 54.5563 97.8601 54.4089 98.0428 54.2048C98.2255 54.0008 98.3701 53.7325 98.4767 53.4C98.5909 53.0675 98.648 52.6518 98.648 52.1531V51.9263C98.648 51.4578 98.5909 51.0648 98.4767 50.7474C98.3701 50.43 98.2255 50.1731 98.0428 49.9766C97.8601 49.7801 97.6469 49.6403 97.4033 49.5572C97.1673 49.4665 96.9199 49.4211 96.6611 49.4211C96.4023 49.4211 96.151 49.4665 95.9074 49.5572C95.6714 49.6403 95.4621 49.7801 95.2794 49.9766C95.0967 50.1731 94.9482 50.43 94.8341 50.7474C94.7275 51.0648 94.6742 51.4578 94.6742 51.9263V52.1531C94.6742 52.6518 94.7275 53.0675 94.8341 53.4C94.9482 53.7325 95.0967 54.0008 95.2794 54.2048C95.4621 54.4089 95.6714 54.5563 95.9074 54.6469C96.151 54.7301 96.4023 54.7716 96.6611 54.7716ZM83.8143 48.1288H77.0771V56.0639H78.79V49.5345H82.1015V56.0639H83.8143V48.1288ZM88.7245 48.1288H85.6414V56.0639H87.3542V53.3433H88.7245C89.8055 53.3433 90.6086 53.109 91.1339 52.6405C91.6591 52.1644 91.9218 51.5296 91.9218 50.7361C91.9218 49.9426 91.6591 49.3115 91.1339 48.843C90.6086 48.3669 89.8055 48.1288 88.7245 48.1288ZM89.8321 51.6316C89.5885 51.8357 89.1622 51.9377 88.5532 51.9377H87.3542V49.5345H88.5532C89.1622 49.5345 89.5885 49.6403 89.8321 49.8519C90.0833 50.0559 90.2089 50.3507 90.2089 50.7361C90.2089 51.1291 90.0833 51.4276 89.8321 51.6316ZM107.164 48.1288H101.911V56.0639H103.624V49.5345H107.164V48.1288ZM108.301 48.1288H111.384C112.465 48.1288 113.268 48.3669 113.793 48.843C114.319 49.3115 114.581 49.9426 114.581 50.7361C114.581 51.5296 114.319 52.1644 113.793 52.6405C113.268 53.109 112.465 53.3433 111.384 53.3433H110.014V56.0639H108.301V48.1288ZM111.213 51.9377C111.822 51.9377 112.248 51.8357 112.492 51.6316C112.743 51.4276 112.868 51.1291 112.868 50.7361C112.868 50.3507 112.743 50.0559 112.492 49.8519C112.248 49.6403 111.822 49.5345 111.213 49.5345H110.014V51.9377H111.213ZM116.565 54.4429H119.523L120.139 56.0639H121.943L118.974 48.1288H117.262L114.293 56.0639H115.96L116.565 54.4429ZM119.009 53.0373H117.09L118.049 50.2826L119.009 53.0373ZM122.976 48.1288H124.689L127.121 52.5952L129.542 48.1288H131.198V56.0639H129.485V51.0195L127.601 54.4769H126.573L124.689 51.0195V56.0639H122.976V48.1288ZM134.736 48.1288H133.023V56.0639H134.736V51.0195L136.62 54.4769H137.648L139.532 51.0195V56.0639H141.245V48.1288H139.589L137.168 52.5952L134.736 48.1288Z" fill="#163BFF"/>
<path d="M44.2519 35.3617C44.0534 35.1712 43.7893 35.0672 43.5164 35.0721C43.2543 35.0796 42.9989 35.1574 42.776 35.2976C42.7538 35.3093 42.7358 35.3277 42.7245 35.3503C42.7132 35.3728 42.7091 35.3984 42.7127 35.4235C42.8077 36.0207 42.8227 36.6282 42.7574 37.2295C42.7055 37.4758 42.5729 37.6969 42.3813 37.8566C42.1898 38.0164 41.9506 38.1053 41.7029 38.1089C41.5647 38.1074 41.4273 38.0867 41.2946 38.0472C41.2946 38.0472 41.2895 38.0472 41.2895 38.0447L41.7532 37.7256C41.7702 37.7143 41.7842 37.6988 41.7939 37.6806C41.8036 37.6623 41.8087 37.6419 41.8087 37.6212C41.8087 37.6005 41.8036 37.5801 41.7939 37.5619C41.7842 37.5437 41.7702 37.5282 41.7532 37.5168L40.8333 36.8734C41.1235 36.6512 41.3078 36.493 41.3315 36.4717C41.345 36.4607 41.356 36.4468 41.3637 36.431C41.3714 36.4153 41.3757 36.398 41.3762 36.3804C41.3766 36.3628 41.3734 36.3453 41.3665 36.3291C41.3597 36.3129 41.3495 36.2985 41.3366 36.2867L41.1732 36.1178C41.15 36.0947 41.1191 36.0813 41.0866 36.0803C41.0589 36.0811 41.0321 36.0905 41.0099 36.1072C40.9994 36.1128 40.7563 36.3029 40.3879 36.5626L40.0189 36.3029L41.4634 35.2925L41.5764 35.5845C41.5852 35.6074 41.6004 35.6272 41.6201 35.6415C41.6398 35.6558 41.6631 35.6639 41.6873 35.6649H41.6924C41.7147 35.6647 41.7365 35.6583 41.7555 35.6466C41.7745 35.6348 41.7901 35.6181 41.8006 35.5982L42.4885 34.3116C42.4989 34.2922 42.5041 34.2703 42.5037 34.2482C42.5032 34.2261 42.4971 34.2045 42.4859 34.1855C42.4747 34.1666 42.4588 34.1509 42.4398 34.1401C42.4208 34.1293 42.3994 34.1237 42.3777 34.1239H42.3594L40.9361 34.3409C40.9123 34.3437 40.8898 34.3536 40.8715 34.3693C40.8532 34.3851 40.8399 34.4061 40.8333 34.4295C40.8281 34.4528 40.8288 34.477 40.8352 34.4999C40.8417 34.5228 40.8537 34.5437 40.8702 34.5606L41.1022 34.7673L39.4604 35.914L37.8234 34.7673L38.053 34.5606C38.0701 34.5442 38.0824 34.5232 38.0885 34.5001C38.0945 34.4769 38.094 34.4525 38.0871 34.4295C38.0818 34.4058 38.0692 34.3844 38.0512 34.3685C38.0331 34.3526 38.0105 34.3429 37.9867 34.3409L36.5638 34.1239H36.5452C36.525 34.1231 36.5049 34.1277 36.4869 34.1371C36.4689 34.1465 36.4536 34.1604 36.4424 34.1775C36.4296 34.1972 36.4221 34.2199 36.4207 34.2435C36.4193 34.267 36.4241 34.2905 36.4346 34.3116L37.1194 35.5977C37.1307 35.6174 37.1468 35.6339 37.1662 35.6456C37.1855 35.6573 37.2075 35.6638 37.23 35.6644H37.2381C37.2617 35.6626 37.2843 35.6541 37.3034 35.6399C37.3226 35.6257 37.3374 35.6063 37.3463 35.584L37.4593 35.292L38.9035 36.3024L38.5348 36.5621C38.1631 36.3024 37.9206 36.1121 37.9152 36.1067C37.8929 36.0904 37.8664 36.0811 37.839 36.0798C37.8224 36.0797 37.8058 36.083 37.7904 36.0894C37.775 36.0959 37.7609 36.1053 37.7491 36.1173L37.5831 36.2862C37.5593 36.3113 37.5462 36.3449 37.5465 36.3798C37.5492 36.4144 37.5641 36.4469 37.5885 36.4712C37.6148 36.4926 37.7965 36.6506 38.0891 36.873L37.1667 37.5164C37.1505 37.5284 37.1373 37.5441 37.1281 37.5623C37.1189 37.5804 37.1141 37.6005 37.1139 37.6209C37.1146 37.6414 37.1199 37.6615 37.1295 37.6796C37.139 37.6977 37.1526 37.7133 37.1691 37.7252L37.6331 38.0443C37.6331 38.0468 37.6304 38.0467 37.6279 38.0467C37.4961 38.0861 37.3595 38.1068 37.2221 38.1084C36.9741 38.1048 36.7346 38.016 36.5426 37.8563C36.3507 37.6966 36.2175 37.4755 36.1649 37.2291C36.1012 36.6277 36.1164 36.0204 36.2101 35.4231C36.2142 35.3983 36.2105 35.3728 36.1997 35.3502C36.1888 35.3277 36.1712 35.3091 36.1495 35.2972C35.9263 35.1577 35.671 35.0799 35.4091 35.0717C35.1354 35.0671 34.8707 35.1709 34.6709 35.3612C34.6604 35.3708 34.652 35.3823 34.6461 35.3953C34.6402 35.4082 34.637 35.4223 34.6367 35.4365C34.6289 35.514 34.4889 37.326 35.3141 38.2425C35.4641 38.4091 35.6477 38.5409 35.8523 38.6288C36.057 38.7167 36.2779 38.7586 36.5 38.7518C36.5891 38.753 36.6782 38.7476 36.7666 38.7358C37.2346 38.6741 37.6942 38.5589 38.1368 38.3926L38.9014 38.9181L37.2067 40.0839C37.1898 40.096 37.176 40.1121 37.1664 40.1307C37.1567 40.1492 37.1515 40.1699 37.1512 40.1909C37.1509 40.2117 37.1559 40.2322 37.1656 40.2505C37.1753 40.2688 37.1894 40.2842 37.2067 40.2954L38.9065 41.4908L37.4569 42.5116L37.3467 42.2254C37.3373 42.2036 37.3223 42.1849 37.3032 42.1711C37.2841 42.1574 37.2618 42.1492 37.2385 42.1474C37.2358 42.1446 37.2358 42.1446 37.2304 42.1446C37.2078 42.1453 37.1858 42.1518 37.1664 42.1636C37.1471 42.1753 37.131 42.192 37.1198 42.2119L36.4343 43.5008C36.4238 43.5214 36.419 43.5445 36.4204 43.5676C36.4218 43.5907 36.4293 43.613 36.4421 43.6322C36.4533 43.6493 36.4686 43.6632 36.4866 43.6726C36.5046 43.682 36.5247 43.6865 36.5449 43.6858H36.5635L37.9864 43.4715C38.0098 43.4686 38.0319 43.4586 38.0498 43.4429C38.0677 43.4271 38.0806 43.4063 38.0868 43.3831C38.0939 43.3597 38.0945 43.3348 38.0884 43.3111C38.0824 43.2875 38.07 43.2659 38.0526 43.249L37.8177 43.0375L39.4602 41.8823L41.1047 43.0375L40.87 43.249C40.8522 43.2657 40.8393 43.2871 40.8328 43.3107C40.8263 43.3344 40.8264 43.3595 40.8331 43.3831C40.8403 43.4062 40.8538 43.4268 40.8719 43.4424C40.8901 43.4581 40.9123 43.4681 40.9359 43.4715L42.3591 43.6858H42.3774C42.3976 43.6859 42.4175 43.6811 42.4354 43.6718C42.4534 43.6625 42.4688 43.6489 42.4805 43.6322C42.4933 43.613 42.5007 43.5907 42.5021 43.5676C42.5034 43.5445 42.4987 43.5214 42.4883 43.5008L41.8004 42.2121C41.79 42.192 41.7744 42.1751 41.7554 42.1633C41.7364 42.1514 41.7145 42.1451 41.6922 42.1448C41.6895 42.1448 41.6871 42.1448 41.6871 42.1475C41.6632 42.1485 41.6401 42.1564 41.6205 42.1702C41.6009 42.184 41.5855 42.2032 41.5762 42.2256L41.4632 42.5118L40.016 41.491L41.7159 40.2956C41.7327 40.284 41.7466 40.2684 41.7563 40.2502C41.766 40.232 41.7712 40.2117 41.7716 40.1911C41.7712 40.17 41.766 40.1494 41.7563 40.1308C41.7466 40.1122 41.7328 40.0962 41.7159 40.0841L40.0213 38.9182L40.7884 38.3928C41.2302 38.5591 41.689 38.6742 42.1562 38.736C42.2445 38.7478 42.3336 38.7532 42.4226 38.7521C42.6447 38.7592 42.8657 38.7174 43.0704 38.6295C43.2751 38.5416 43.4587 38.4097 43.6085 38.2428C44.4361 37.3263 44.2937 35.5143 44.2859 35.4369C44.2828 35.4087 44.2709 35.3824 44.2519 35.3617ZM39.4604 36.6937L39.8242 36.9459C39.7107 37.0209 39.5869 37.0961 39.4604 37.1736C39.3364 37.0961 39.215 37.0209 39.099 36.9459L39.4604 36.6937ZM38.1368 37.6185L38.6404 37.2673C38.738 37.3316 38.8409 37.3984 38.9512 37.4685C38.7537 37.5758 38.5561 37.6773 38.3559 37.7687L38.1368 37.6185ZM40.7542 40.194L39.4604 41.1026L38.1715 40.194L39.4604 39.3043L40.7542 40.194ZM39.4604 38.5322L38.8355 38.0982C39.0543 37.9937 39.2623 37.8836 39.4604 37.7739C39.6604 37.8836 39.8687 37.9937 40.09 38.0982L39.4604 38.5322ZM40.5693 37.7684C40.3691 37.677 40.1688 37.5755 39.9713 37.4682C40.0792 37.3982 40.182 37.3313 40.2824 37.2671L40.7884 37.6182L40.5693 37.7684Z" fill="#163BFF"/>
<path d="M44.6917 36.426C44.7288 36.3322 44.7536 36.234 44.7655 36.1337L44.6917 36.1096V36.426Z" fill="#163BFF"/>
<path d="M60.9775 31.9341C60.2624 31.5888 59.4627 31.4666 58.6793 31.583C60.0759 31.0925 61.0274 30.0367 61.0774 29.0931C60.3719 28.9282 59.6371 28.9458 58.9401 29.1442C59.6173 28.6295 60.7297 27.6864 60.5951 26.3032C59.9416 26.1396 58.7399 26.6059 58.2336 26.8341C59.8415 25.9146 60.4212 23.7411 59.5699 22.5085C59.0639 22.8111 56.7631 25.1965 56.3914 25.4751C57.2874 24.5216 57.9895 23.3977 58.4576 22.1678C58.84 21.1522 58.8637 19.3806 57.6299 18.7884C56.5627 20.9924 55.305 23.0955 53.8717 25.0731C53.7476 24.9603 53.6477 24.8076 53.4868 24.7835C53.1229 25.8017 52.4999 26.7035 51.6814 27.3969C51.6119 27.2291 51.5336 27.0653 51.4468 26.9062C50.6692 28.0882 48.6531 29.7097 47.9993 30.7039C47.869 30.8512 47.7702 31.0245 47.7091 31.2127C47.6481 31.401 47.6261 31.6 47.6447 31.7973C47.6633 31.9946 47.722 32.1858 47.817 32.3588C47.9121 32.5319 48.0414 32.6829 48.1969 32.8025C48.4816 33.0917 49.0245 33.6065 48.5552 34.3222C48.273 34.7418 47.8385 35.0302 47.3473 35.1242C46.856 35.2182 46.3481 35.1099 45.9353 34.8233C45.9353 34.6544 45.9298 34.4935 45.9221 34.3435C46.1139 34.2517 46.2816 34.1151 46.4115 33.9448C46.5414 33.7746 46.6299 33.5755 46.6697 33.3638C46.7096 33.1522 46.6996 32.9339 46.6407 32.7269C46.5818 32.5199 46.4755 32.33 46.3307 32.1727C46.2008 32.4272 45.9803 32.6217 45.7141 32.7164C45.6796 32.5618 45.6328 32.4104 45.5744 32.2634L45.5426 32.1939L45.4713 32.1912C45.4635 32.1884 45.1949 32.1753 44.7915 32.1271C45.0239 32.0499 45.2211 31.89 45.347 31.6768C45.4729 31.4636 45.5189 31.2114 45.4767 30.9665C45.2484 31.1549 44.9571 31.2459 44.6642 31.2204C44.3712 31.195 44.0993 31.055 43.9058 30.8299C43.6807 30.5515 43.527 30.2207 43.4585 29.8671C43.3899 29.5135 43.4087 29.1482 43.5131 28.8038C43.7731 27.8629 44.2863 27.0145 44.9947 26.3541C45.0483 26.4235 45.118 26.4783 45.1975 26.5134C45.2771 26.5485 45.364 26.5629 45.4504 26.5553C45.6006 26.5071 45.8484 26.3782 46.0331 26.3031C46.2634 26.2321 46.5058 26.2112 46.7446 26.2417C46.9834 26.2722 47.2132 26.3535 47.4191 26.4801C47.6151 26.5759 47.774 26.7355 47.8705 26.9336C47.967 27.1317 47.9956 27.3569 47.9518 27.5735C48.8741 27.0456 48.5552 26.1667 47.3454 25.8394C48.1728 25.8394 48.8529 26.6057 49.0241 26.7051C49.2463 26.8458 49.5 26.9268 49.7615 26.9404C50.0229 26.954 50.2835 26.8998 50.5186 26.7828C51.2515 26.429 51.399 25.5497 51.2014 25.3731C51.1637 25.5464 51.072 25.7026 50.9399 25.8186C50.8078 25.9345 50.6424 26.004 50.4683 26.0166C49.8701 26.0333 49.2782 25.8889 48.7525 25.5981C48.2725 25.4072 47.7602 25.3143 47.2449 25.3247C48.0725 24.8586 49.3587 24.9095 49.8146 25.6249C49.9587 25.5221 50.0797 25.3894 50.1696 25.2355C50.2596 25.0817 50.3164 24.9102 50.3365 24.7324C50.5712 23.4782 49.6066 22.8348 48.5787 22.8348C48.5926 22.7748 48.5891 22.7121 48.5686 22.6541C48.5481 22.5962 48.5114 22.5455 48.4631 22.5084C48.4148 22.4712 48.357 22.4491 48.2965 22.4448C48.2361 22.4404 48.1758 22.454 48.1228 22.4839C48.1282 22.4325 48.1216 22.3806 48.1038 22.3322C48.0859 22.2838 48.0571 22.2404 48.0197 22.2053C48.0434 22.2026 48.0751 22.1919 48.0964 22.1919C49.0299 22.1833 49.9309 21.8418 50.6422 21.2269C51.5702 20.2193 50.0889 18.9382 50.6185 17.9467C51.1092 18.2377 51.6434 18.445 52.2 18.5605C52.2781 18.7584 52.3322 18.9653 52.3609 19.1766C52.5849 20.297 51.4989 20.4845 51.7809 21.6772C51.9047 22.2188 52.3028 22.4062 52.4369 23.0496C52.443 23.206 52.4164 23.3619 52.3587 23.507C52.301 23.6521 52.2136 23.7831 52.1023 23.8912C52.2828 23.9125 52.4656 23.8855 52.6326 23.8129C52.7997 23.7404 52.9452 23.6248 53.0549 23.4775C53.1646 23.3303 53.2345 23.1565 53.2579 22.9733C53.2813 22.7901 53.2573 22.6039 53.1882 22.433C53.0669 22.1435 52.7557 21.8649 52.7557 21.5275C53.2143 22.1435 53.6232 22.1194 54.3266 21.8918C54.6482 21.7924 54.6746 22.2456 54.4744 22.6099C54.6475 22.5101 54.7937 22.3683 54.8999 22.1972C55.0061 22.0261 55.0691 21.8309 55.0832 21.629C55.093 21.5307 55.0789 21.4314 55.0422 21.3398C55.0054 21.2483 54.9471 21.1674 54.8724 21.1041C54.7977 21.0409 54.7089 20.9972 54.6137 20.977C54.5185 20.9569 54.4199 20.9608 54.3266 20.9884C54.1186 21.0124 53.6968 21.302 53.6732 20.8868C53.586 20.1709 54.6984 20.1952 54.4744 19.0404C54.3531 18.4613 53.7205 18.1449 52.732 18.0215C52.558 17.8545 52.3976 17.6735 52.2524 17.4801C51.7096 16.5639 51.1506 16.3252 50.8158 16.5127C50.4207 16.7136 50.2127 16.8909 49.891 17.065C49.6333 17.1598 49.394 17.3004 49.1845 17.4801C48.7523 18.0215 49.1609 18.863 49.3821 19.3805C49.6662 19.8265 49.7893 20.3589 49.7304 20.8868C49.5562 21.5029 48.5545 21.8918 47.951 22.0179C47.9113 22.0179 47.8876 22.0313 47.8482 22.0313V21.7927C48.0227 21.4606 48.1725 21.1158 48.2964 20.761C48.7046 19.654 48.0961 19.2041 47.1972 18.9895C47.1419 18.95 47.0781 18.9248 47.0111 18.9159C46.9441 18.907 46.876 18.9148 46.8126 18.9386H46.7872L46.7633 19.1261L46.6395 19.0888L46.6659 18.8634H46.6128C46.6617 18.8251 46.7008 18.7754 46.727 18.7186C46.7532 18.6618 46.7656 18.5995 46.7633 18.5368C46.7635 18.4246 46.7294 18.315 46.6659 18.2232H46.7871L46.7368 18.1721C46.698 18.105 46.6481 18.0451 46.5894 17.9952C46.5643 17.9677 46.5478 17.9332 46.542 17.8962C46.5693 17.9275 46.6024 17.953 46.6394 17.9712C46.6944 18.0149 46.744 18.0653 46.7871 18.1211L46.8609 18.1721V17.143L46.7871 17.2043C46.7632 17.229 46.6895 17.2796 46.6394 17.3305C46.6086 17.3578 46.5761 17.383 46.542 17.4058C46.542 17.3817 46.5657 17.3546 46.5894 17.3037C46.6497 17.2621 46.7001 17.2071 46.7368 17.143L46.7871 17.0653H45.7749L45.8249 17.143C45.8723 17.1778 45.9355 17.2555 45.9859 17.3037C46.0029 17.3427 46.028 17.3775 46.0593 17.4058C46.0333 17.3817 45.9859 17.3817 45.9592 17.3305C45.8723 17.2796 45.8249 17.229 45.7749 17.2043L45.7248 17.143V18.172L45.7749 18.1211C45.8294 18.0628 45.8914 18.0124 45.9592 17.9711C45.9859 17.947 46.0333 17.9202 46.0593 17.8961C46.0333 17.9202 46.0097 17.9711 45.9859 17.9952C45.9382 18.0594 45.8842 18.1187 45.8249 18.172L45.7749 18.2232H45.9355C45.8945 18.2632 45.8631 18.3123 45.8439 18.3667C45.8247 18.4212 45.8182 18.4794 45.8249 18.5368C45.8233 18.5978 45.8345 18.6584 45.8576 18.7147C45.8808 18.771 45.9154 18.8216 45.9592 18.8633H45.9355L45.9592 19.0888L45.8249 19.126L45.7983 18.9385H45.7749C45.7137 18.9142 45.6476 18.9062 45.5825 18.9151C45.5175 18.924 45.4558 18.9496 45.4032 18.9895C44.4882 19.204 43.8825 19.6539 44.2908 20.7609C44.4139 21.1178 44.5673 21.463 44.7495 21.7927V21.9564C43.6216 21.5396 42.5965 20.8784 41.745 20.0185C41.7053 19.9709 41.6682 19.9209 41.6341 19.8688L41.629 19.8713L41.6473 19.2043C41.9753 18.6227 42.2523 18.0128 42.4749 17.3817C43.055 15.7843 42.2007 15.1195 40.8434 14.8407C40.7678 14.784 40.6796 14.7475 40.5866 14.7344C40.4936 14.7214 40.3989 14.7322 40.311 14.7659L40.2634 15.0177L39.9792 14.9937L40.0026 14.6666C39.956 14.6863 39.9055 14.6945 39.8551 14.6907C39.9572 14.6315 40.0418 14.5456 40.1002 14.4419C40.1586 14.3383 40.1886 14.2206 40.1872 14.1012C40.1876 14.0067 40.1666 13.9134 40.126 13.8283C40.0853 13.7433 40.0261 13.6689 39.9528 13.6108H40.1872C40.013 13.4545 39.8744 13.2614 39.7811 13.0451C39.9915 13.1439 40.1799 13.2852 40.3347 13.4605V12.1524C40.177 12.3142 39.9887 12.442 39.7811 12.5279C39.8823 12.3273 40.0201 12.1482 40.1872 12H38.901C39.0012 12.1262 39.2488 12.3804 39.2724 12.5279C39.1223 12.5038 38.8773 12.2521 38.7401 12.1524V13.4603C38.8949 13.2942 39.0746 13.154 39.2724 13.0449C39.1872 13.2569 39.0609 13.4492 38.901 13.6106H39.1223C39.0507 13.6694 38.9935 13.7443 38.9552 13.8294C38.9168 13.9145 38.8983 14.0074 38.901 14.101C38.8971 14.2196 38.9249 14.3371 38.9815 14.4409C39.0381 14.5448 39.1213 14.631 39.2224 14.6904C39.1635 14.6928 39.1047 14.6847 39.0485 14.6664L39.0749 14.9934L38.7901 15.0175L38.7638 14.7657C38.6741 14.7326 38.5778 14.7221 38.4833 14.7351C38.3887 14.7481 38.2987 14.7843 38.2209 14.8404C36.8769 15.1193 36.0202 15.7841 36.6026 17.3815C36.8032 18.0214 37.0812 18.6336 37.4302 19.2039V19.8952C37.4065 19.9193 37.3806 19.9702 37.3325 20.0185C36.9005 20.6351 35.2429 21.6535 34.3281 21.9564V21.7927C34.5103 21.4631 34.6638 21.1179 34.7867 20.761C35.1953 19.654 34.5892 19.2041 33.6743 18.9895C33.6218 18.9496 33.5601 18.924 33.4951 18.9151C33.4301 18.9062 33.364 18.9143 33.3029 18.9386H33.2792L33.2526 19.1261L33.129 19.0888L33.1527 18.8634H33.129C33.2092 18.7742 33.2534 18.6576 33.2526 18.5368C33.2585 18.4804 33.2526 18.4233 33.2354 18.3692C33.2182 18.3152 33.1901 18.2655 33.1527 18.2232H33.3029L33.2526 18.1721C33.1964 18.1195 33.1467 18.0601 33.1048 17.9952C33.0814 17.9712 33.0445 17.9202 33.0182 17.8962C33.0445 17.9202 33.1048 17.9471 33.129 17.9712C33.1912 18.016 33.2493 18.0661 33.3029 18.1211L33.353 18.1721V17.143L33.3029 17.2043C33.2428 17.2432 33.1847 17.2853 33.129 17.3305C33.1048 17.3817 33.0445 17.3817 33.0182 17.4058C33.0541 17.3787 33.0837 17.3438 33.1048 17.3037C33.1501 17.2465 33.1995 17.1928 33.2526 17.143L33.3029 17.0653H32.2907L32.3386 17.143C32.3798 17.2003 32.4256 17.2541 32.4756 17.3037C32.5229 17.3546 32.5466 17.3817 32.5466 17.4058C32.513 17.3834 32.4812 17.3582 32.4516 17.3305C32.3884 17.2796 32.3122 17.229 32.2907 17.2043L32.2145 17.143V18.172L32.2907 18.1211C32.3349 18.0615 32.3894 18.0107 32.4516 17.9711C32.4876 17.9523 32.5198 17.9269 32.5466 17.8961C32.5435 17.9172 32.5354 17.9373 32.523 17.9545C32.5107 17.9717 32.4944 17.9857 32.4756 17.9952C32.4253 18.0729 32.3623 18.1211 32.3386 18.172L32.2907 18.2232H32.4253C32.351 18.31 32.3107 18.4217 32.3122 18.5368C32.3101 18.6008 32.324 18.6643 32.3525 18.7214C32.3811 18.7785 32.4234 18.8273 32.4756 18.8633H32.4253L32.4516 19.0888L32.3122 19.126L32.2907 18.9385H32.2646C32.2035 18.9141 32.1373 18.906 32.0722 18.9149C32.0072 18.9238 31.9455 18.9495 31.8929 18.9895C30.9784 19.204 30.3723 19.6539 30.7805 20.7609C30.9036 21.1178 31.0571 21.4631 31.2394 21.7927V22.0316C31.1998 22.0316 31.1657 22.0182 31.139 22.0182C30.5332 21.8921 29.5207 21.5031 29.3468 20.8871C29.2894 20.3596 29.4114 19.828 29.6924 19.3808C29.9268 18.8633 30.3246 18.0217 29.9058 17.4804C29.6895 17.3034 29.4464 17.1631 29.1859 17.0653C28.8669 16.8912 28.6667 16.7138 28.2611 16.513C27.9368 16.3255 27.3832 16.5641 26.8247 17.4804C26.6831 17.6776 26.5213 17.8591 26.3422 18.0217C25.367 18.145 24.737 18.4616 24.6027 19.0406C24.3761 20.1955 25.4911 20.1712 25.4171 20.8871C25.3908 21.3023 24.9609 21.0127 24.7607 20.9887C24.6667 20.9599 24.5673 20.9551 24.4711 20.9746C24.3749 20.9942 24.2849 21.0376 24.2091 21.1009C24.1333 21.1642 24.0739 21.2456 24.0364 21.3377C23.9988 21.4299 23.9841 21.53 23.9936 21.6293C24.0102 21.8305 24.0742 22.0247 24.1802 22.1955C24.2862 22.3662 24.4311 22.5085 24.6027 22.6102C24.4049 22.2458 24.4286 21.7927 24.7607 21.8921C25.4648 22.1197 25.8599 22.1438 26.3185 21.5277C26.3185 21.8652 26.0232 22.1438 25.8889 22.4333C25.8185 22.6041 25.7934 22.7908 25.8162 22.9745C25.839 23.1583 25.9089 23.3328 26.0188 23.4804C26.1288 23.6281 26.275 23.7438 26.4428 23.8159C26.6105 23.8881 26.794 23.9141 26.9748 23.8915C26.858 23.7882 26.7675 23.6577 26.711 23.5112C26.6546 23.3646 26.6338 23.2064 26.6505 23.0499C26.7772 22.4065 27.1723 22.219 27.3069 21.6774C27.5812 20.4847 26.4925 20.2973 26.7269 19.1768C26.7512 18.9662 26.8007 18.7593 26.8744 18.5608C27.4321 18.4492 27.9669 18.2416 28.4559 17.947C28.9646 18.9385 27.5044 20.2196 28.4322 21.2272C29.1451 21.8394 30.0452 22.1806 30.9783 22.1922C30.9995 22.1922 31.0337 22.2056 31.0601 22.2083C31.0213 22.2419 30.9911 22.2845 30.9722 22.3326C30.9534 22.3807 30.9464 22.4327 30.9519 22.4842C30.8996 22.4538 30.8397 22.4399 30.7797 22.4443C30.7197 22.4486 30.6623 22.4711 30.6149 22.5087C30.5674 22.5463 30.532 22.5974 30.5133 22.6556C30.4945 22.7137 30.4931 22.7762 30.5094 22.8351C29.4469 22.8351 28.5086 23.4785 28.7406 24.7327C28.7598 24.912 28.8175 25.0848 28.9094 25.239C29.0014 25.3932 29.1255 25.525 29.273 25.6252C29.7187 24.9098 31.0049 24.8589 31.843 25.325C31.3241 25.3134 30.808 25.4063 30.3245 25.5984C29.8032 25.8904 29.2144 26.0349 28.6195 26.0168C28.4444 26.004 28.2778 25.9346 28.1441 25.8189C28.0104 25.7032 27.9164 25.5471 27.8759 25.3734C27.6783 25.5502 27.8263 26.4292 28.5668 26.7831C28.8 26.9 29.0589 26.9542 29.3186 26.9406C29.5783 26.927 29.8303 26.846 30.0505 26.7054C30.2247 26.606 30.9045 25.8397 31.7348 25.8397C30.5332 26.1668 30.1983 27.0458 31.1389 27.5738C31.0879 27.3585 31.1117 27.132 31.2064 26.9326C31.3011 26.7333 31.4608 26.5735 31.6584 26.4804C31.8645 26.3541 32.0943 26.2731 32.3331 26.2426C32.5719 26.2121 32.8143 26.2328 33.0447 26.3034C33.2291 26.3784 33.4742 26.5073 33.6247 26.5556C33.7112 26.5635 33.7982 26.5492 33.8778 26.5141C33.9574 26.4789 34.027 26.424 34.0803 26.3544C34.7817 27.0212 35.2942 27.8672 35.5644 28.8041C35.6717 29.1483 35.6917 29.5146 35.6226 29.8688C35.5534 30.2231 35.3974 30.5538 35.169 30.8303C34.9765 31.056 34.705 31.1965 34.4123 31.222C34.1195 31.2476 33.8285 31.156 33.601 30.9669C33.5583 31.2115 33.6038 31.4636 33.7292 31.6768C33.8546 31.89 34.0514 32.0501 34.2836 32.1276C33.8747 32.173 33.601 32.1889 33.5927 32.1916L33.5217 32.1943L33.4928 32.2639C33.4328 32.4096 33.3852 32.5604 33.3504 32.7144C33.0904 32.6158 32.8754 32.423 32.7468 32.173C32.6021 32.3292 32.4957 32.5178 32.4362 32.7237C32.3767 32.9296 32.3657 33.1468 32.4043 33.3577C32.4428 33.5687 32.5298 33.7674 32.658 33.9378C32.7863 34.1082 32.9522 34.2454 33.1424 34.3383C33.1343 34.4938 33.1292 34.6601 33.1292 34.8315C32.7183 35.1133 32.2143 35.2179 31.7277 35.1225C31.2411 35.0271 30.8115 34.7394 30.5331 34.3225C30.0505 33.6069 30.6065 33.0921 30.8807 32.8028C31.0358 32.6829 31.1647 32.5316 31.2594 32.3585C31.354 32.1854 31.4123 31.9942 31.4306 31.797C31.449 31.5998 31.4269 31.4008 31.3658 31.2128C31.3047 31.0247 31.2059 30.8515 31.0757 30.7042C30.4221 29.71 28.406 28.0885 27.6307 26.9065C27.5399 27.0624 27.4639 27.2267 27.4038 27.3972C26.583 26.7042 25.9574 25.8025 25.5906 24.7839C25.4404 24.8079 25.3298 24.9607 25.206 25.0734C23.7763 23.0938 22.5196 20.9908 21.4502 18.7885C20.2243 19.3807 20.248 21.1523 20.6227 22.1679C21.0979 23.3928 21.7971 24.515 22.6833 25.4751C22.3143 25.1966 20.0161 22.8109 19.5074 22.5085C18.6561 23.7412 19.2359 25.9147 20.841 26.8342C20.3482 26.606 19.136 26.1396 18.4823 26.3033C18.3585 27.6865 19.4579 28.6293 20.1375 29.1443C19.4404 28.9459 18.7055 28.9283 18 29.0931C18.05 30.0367 19.0119 31.0926 20.3719 31.583C19.5963 31.4691 18.8048 31.5912 18.0974 31.9342C18.1976 32.915 19.2862 33.7593 20.5934 33.9604C19.8008 34.0168 19.0613 34.3861 18.5328 34.9894C18.7885 35.3515 19.1295 35.6425 19.5245 35.8359C19.9195 36.0293 20.356 36.1188 20.7938 36.0963C20.5035 36.2072 20.2388 36.3778 20.0163 36.5975C19.9816 36.5675 19.938 36.5504 19.8925 36.549C19.8673 36.5634 19.8481 36.5865 19.8384 36.6141C19.8288 36.6417 19.8292 36.6719 19.8397 36.6992V36.7367C19.7953 36.7641 19.7571 36.8008 19.7276 36.8442C19.6981 36.8877 19.678 36.937 19.6685 36.9889C19.5651 37.1329 19.4784 37.2885 19.4099 37.4526C19.4363 37.466 19.4578 37.4901 19.4839 37.5035C19.4732 37.6013 19.4985 37.6997 19.555 37.7796C19.5096 37.8393 19.4766 37.9076 19.4578 37.9805L18.8277 37.7283C18.7947 37.9694 18.8116 38.2148 18.8774 38.4489C18.9432 38.6829 19.0563 38.9004 19.2097 39.0873C19.4363 39.3498 19.6922 39.3123 19.6185 39.4009L20.301 39.8269C20.3224 39.877 20.3538 39.9221 20.3933 39.9592C20.4327 39.9964 20.4793 40.0248 20.53 40.0426C20.5808 40.0605 20.6347 40.0675 20.6883 40.0631C20.7418 40.0587 20.7939 40.0431 20.8412 40.0171V40.0683C20.8444 40.2 20.8877 40.3274 20.9652 40.433C21.0426 40.5386 21.1504 40.6171 21.2737 40.6578C21.2263 40.8858 21.3233 41.0354 21.6346 41.1375L24.2046 47.4706C24.1497 47.5892 24.1424 47.7249 24.1842 47.849C24.226 47.973 24.3136 48.0756 24.4286 48.135C24.3611 48.2208 24.3257 48.3282 24.3287 48.438C24.4286 48.363 24.5763 48.3365 24.6503 48.5507C24.6977 48.7007 24.4286 49.1912 24.8374 49.5182C24.8121 49.6655 24.8372 49.8172 24.9087 49.948C24.9802 50.0787 25.0936 50.1805 25.2301 50.2364C25.2301 50.3866 25.3671 50.877 25.3908 51.0511C25.2064 51.3165 24.7844 51.7186 24.8374 52.1581C24.8404 52.2766 24.8838 52.3903 24.9603 52.4798C25.0367 52.5692 25.1414 52.6289 25.2563 52.6485C25.1565 53.2139 25.4649 53.466 25.9364 53.4928C25.9484 53.6537 26.0201 53.8039 26.1371 53.9129C26.2541 54.0219 26.4076 54.0815 26.5662 54.0795C26.7542 54.2314 26.9575 54.3627 27.1726 54.4711C26.9245 54.7708 27.0988 55.1625 27.5548 55.2886C27.5832 55.3883 27.639 55.4778 27.7155 55.5465C27.792 55.6153 27.8861 55.6605 27.987 55.677C28.0444 55.7748 28.1358 55.8472 28.2432 55.8799C28.3505 55.9127 28.4661 55.9033 28.567 55.8538C28.6538 55.7864 28.714 55.6896 28.7367 55.5809C28.7593 55.4723 28.743 55.359 28.6905 55.2615C28.7067 54.8412 28.6358 54.4221 28.4825 54.0314C28.4868 53.8467 28.4527 53.6631 28.3823 53.4928C28.7406 53.2648 29.186 52.9756 29.3469 52.8762C30.2063 52.1718 31.2429 51.727 32.3387 51.5924C32.7093 51.5581 33.0817 51.5492 33.4535 51.5659C33.9091 51.6163 34.5393 51.7561 34.9086 51.4666C34.9644 51.4344 35.0097 51.3862 35.0387 51.328C35.0678 51.2699 35.0793 51.2043 35.072 51.1395C35.0217 50.8503 34.7132 50.5982 34.6134 50.3357C34.587 50.2553 34.5394 50.1396 34.4921 50.0355C34.7609 50.0908 35.0397 50.0637 35.2933 49.9575C35.4827 49.8746 35.6451 49.7387 35.7613 49.5655C35.8775 49.3923 35.9429 49.189 35.9497 48.9794C35.5649 49.1671 34.6372 49.4189 34.5395 48.4621C34.4396 47.6206 35.1695 46.9052 36.308 47.2189C37.0858 47.4197 38.2216 49.1028 37.1832 49.8346C36.677 50.1857 35.8997 50.5232 35.9996 51.4425C36.1575 51.2364 36.3656 51.0759 36.6033 50.9767C36.8409 50.8776 37.1 50.8432 37.3547 50.877C36.5031 51.5177 35.8494 51.5924 34.9588 52.0829C34.1813 52.5467 33.6015 53.3159 32.9924 53.3401C32.5233 53.3642 32.2649 52.7986 32.7209 52.359C32.4624 52.3317 32.2022 52.3903 31.9794 52.5261C31.7565 52.6619 31.5829 52.8675 31.4847 53.1121C31.3664 53.3514 31.3376 53.6263 31.4036 53.8856C31.4695 54.1449 31.6259 54.371 31.8435 54.5219C31.5359 54.6735 31.2905 54.9302 31.1502 55.2472C31.01 55.5642 30.9838 55.9212 31.0762 56.2558C31.2636 56.9474 31.9433 56.9474 31.6852 57.8265C31.863 57.7821 32.0257 57.6897 32.1561 57.559C32.2864 57.4283 32.3796 57.2641 32.4256 57.084C32.4439 56.8467 32.521 56.618 32.6498 56.4192C32.6332 56.7598 32.7143 57.098 32.8833 57.3925C33.0522 57.6871 33.3018 57.9253 33.6015 58.0783C33.8925 58.2393 34.2272 58.2994 34.5549 58.2496C34.8826 58.1999 35.1853 58.0429 35.4174 57.8024C35.569 58.1777 35.8279 58.4981 36.1606 58.7222C36.4932 58.9462 36.8844 59.0636 37.2834 59.0591C37.6526 59.0408 38.0106 58.9243 38.3217 58.7214C38.5684 59.2763 38.9956 59.7279 39.5315 60C40.0751 59.7298 40.5114 59.2786 40.7679 58.7214C41.0752 58.9243 41.4298 59.0409 41.7958 59.0591C42.1942 59.061 42.5842 58.9425 42.9164 58.7188C43.2485 58.4951 43.508 58.1761 43.6617 57.8024C43.8937 58.0429 44.1965 58.2 44.5242 58.2497C44.8519 58.2995 45.1866 58.2393 45.4776 58.0783C45.7768 57.9245 46.026 57.6861 46.1953 57.3918C46.3645 57.0975 46.4466 56.7598 46.4317 56.4192C46.5666 56.6157 46.6476 56.8451 46.6664 57.084C46.7068 57.2647 46.7964 57.4302 46.9251 57.5615C47.0537 57.6928 47.2161 57.7847 47.3936 57.8265C47.1355 56.9474 47.8291 56.9474 47.9999 56.2558C48.0929 55.9228 48.0684 55.5672 47.9307 55.2505C47.7931 54.9339 47.5509 54.6761 47.2461 54.5219C47.4624 54.3698 47.6168 54.1428 47.6803 53.8833C47.7439 53.6238 47.7123 53.3496 47.5914 53.1121C47.4938 52.8671 47.3203 52.661 47.0973 52.5251C46.8743 52.3893 46.6138 52.3309 46.3552 52.359C46.8141 52.7986 46.5662 53.3642 46.0836 53.3401C45.4773 53.316 44.8978 52.5467 44.1176 52.0829C43.2294 51.5924 42.5733 51.5177 41.7217 50.877C41.9767 50.842 42.2364 50.8758 42.4746 50.975C42.7127 51.0742 42.9211 51.2354 43.0786 51.4424C43.1785 50.5232 42.4012 50.1857 41.8923 49.8346C40.867 49.1028 41.9926 47.4197 42.7834 47.2188C43.9062 46.9049 44.6493 47.6206 44.5387 48.4621C44.4149 49.4189 43.5135 49.1671 43.105 48.9794C43.1198 49.1899 43.191 49.3924 43.3108 49.5648C43.4307 49.7372 43.5946 49.873 43.7849 49.9575C43.9499 50.0284 44.127 50.0654 44.3062 50.0663C44.4853 50.0673 44.6628 50.0322 44.8286 49.9631C44.8154 50.0569 44.7995 50.1592 44.7995 50.1858C44.7233 51.003 44.2908 51.078 44.4386 51.4157C44.6493 51.6679 46.0333 51.6166 46.4047 51.6946C47.0611 51.7827 47.6173 52.0323 48.2472 52.1582C48.9545 52.2342 49.6538 52.3732 50.3371 52.5736C50.7432 52.7504 51.2018 53.0882 51.5969 53.289C52.2006 53.3908 52.1032 53.6404 52.488 53.6404C52.8333 53.6404 52.9676 53.3402 53.413 53.214C53.7217 53.1393 54.0665 53.2649 54.375 53.1636C54.5992 53.1124 54.6993 52.8765 54.91 52.7506C55.1581 52.598 55.5032 52.598 55.7379 52.3833C55.793 52.3192 55.8332 52.2433 55.8555 52.1612C55.8779 52.0791 55.8817 51.9929 55.8668 51.9091L55.8719 51.9439C56.3485 51.5979 56.7077 51.11 56.9 50.5476C56.9608 50.5359 57.0159 50.5035 57.0562 50.4558C57.0964 50.408 57.1195 50.3477 57.1216 50.2848V50.2367C57.1814 50.1885 57.23 50.1275 57.2642 50.0581C57.2983 49.9887 57.317 49.9125 57.3191 49.8349C57.3195 49.7476 57.3022 49.661 57.2682 49.5808C57.2342 49.5005 57.1843 49.4283 57.1216 49.3686V49.317C57.1164 49.2286 57.0819 49.1446 57.0238 49.0787C56.9249 48.5431 56.678 48.0472 56.3121 47.649C55.9462 47.2508 55.4765 46.9667 54.9577 46.8299V46.7792H54.934C54.934 46.7283 54.91 46.7017 54.8733 46.7017C54.7139 46.5557 54.5949 46.3699 54.528 46.1626C54.7468 46.2825 54.9497 46.4303 55.1317 46.6024V45.1575C54.9497 45.3297 54.7469 45.4775 54.528 45.5973C54.6185 45.3585 54.7663 45.1466 54.9579 44.9807H53.5132C53.7031 45.1481 53.8504 45.3596 53.9427 45.5973C53.7239 45.4775 53.5212 45.3297 53.3393 45.1575V46.6022C53.5212 46.4301 53.724 46.2823 53.9427 46.1624C53.8504 46.4001 53.7031 46.6116 53.5132 46.7789L53.5632 46.803C53.0284 46.9315 52.5416 47.2147 52.1618 47.6186C51.782 48.0224 51.5254 48.5296 51.423 49.0786C51.3861 49.1063 51.3557 49.1421 51.3343 49.1834C51.3128 49.2247 51.3009 49.2703 51.2992 49.317V49.3682C51.2364 49.4278 51.1864 49.5001 51.1524 49.5803C51.1184 49.6606 51.101 49.7471 51.1014 49.8345C51.1035 49.9121 51.1223 49.9883 51.1564 50.0578C51.1906 50.1272 51.2394 50.1881 51.2992 50.2363V50.2844C51.2958 50.3488 51.3169 50.412 51.3582 50.461C51.3994 50.5099 51.4576 50.5408 51.5207 50.5472C51.5705 50.6856 51.6286 50.8207 51.6946 50.9519C51.6946 50.9385 51.6946 50.9385 51.7105 50.9251C51.659 51.0864 51.5685 51.232 51.4473 51.3485C51.3261 51.465 51.1782 51.5488 51.0169 51.5921C50.1368 51.7183 49.1618 51.3403 48.2709 51.0026C47.8151 50.886 47.4029 50.6364 47.0849 50.2845C47.006 50.1858 46.9514 50.0694 46.9257 49.945C46.9 49.8206 46.9039 49.6917 46.9371 49.5691C47.0715 49.7292 47.2353 49.8611 47.4194 49.9575C47.4299 49.8337 47.4538 49.7115 47.4907 49.5931C47.6008 49.7602 47.7532 49.8939 47.9317 49.9802C48.1103 50.0665 48.3085 50.1022 48.5054 50.0836C48.3603 49.8989 48.2612 49.6815 48.2162 49.4496C48.1713 49.2178 48.182 48.9783 48.2473 48.7516C48.3689 48.9253 48.5367 49.0602 48.731 49.1404C48.9253 49.2207 49.138 49.243 49.3443 49.2048C49.5507 49.1666 49.742 49.0694 49.8959 48.9246C50.0499 48.7798 50.1601 48.5934 50.2137 48.3873C50.1359 48.4403 50.0474 48.4749 49.9548 48.4883C49.8621 48.5017 49.7676 48.4937 49.6784 48.4649C49.5892 48.436 49.5076 48.3871 49.4396 48.3216C49.3715 48.2562 49.3189 48.176 49.2857 48.0871C49.1355 47.6448 49.6309 46.5755 49.1855 45.7474C49.0191 45.424 48.7741 45.1493 48.4738 44.9494C48.1734 44.7496 47.8278 44.6312 47.4697 44.6057C47.5408 44.4872 47.5824 44.353 47.591 44.2146C47.2429 44.3941 46.8394 44.4275 46.4673 44.3077C46.0952 44.1879 45.7842 43.9244 45.6012 43.5739C45.8199 43.6498 46.0504 43.6843 46.2813 43.6757C45.5041 43.0325 45.5514 41.2099 46.1099 40.2693C46.1838 40.2183 46.2075 40.1675 46.2813 40.1434C46.4524 40.4945 46.9614 40.4945 47.2195 40.784C47.3199 40.682 47.3697 40.6579 47.4701 40.5695C47.4701 40.5695 47.4911 42.0651 47.5913 42.6812C47.6887 43.373 48.3479 43.2977 48.68 43.6007C49.0753 43.1584 49.7921 43.1825 49.6814 42.4162C49.5813 41.6521 49.4338 40.9608 49.4102 40.4436C49.6314 40.9099 50.0636 42.6571 50.2378 43.1584C50.5196 43.901 51.2261 43.6757 51.6213 43.9652C51.8823 43.448 52.5363 43.2978 52.275 42.5178C52.2012 42.3169 51.1285 40.0173 50.9678 39.5753C51.3496 40.143 52.3874 42.1664 52.7093 42.7325C53.0676 43.322 53.7215 43.0327 54.1906 43.1826C54.2802 42.7567 54.91 42.2661 54.4517 41.5264C53.8717 40.5452 52.5117 38.8356 52.4377 38.5973C52.7093 38.8597 54.8204 41.5264 54.9842 41.6763C55.4771 42.1162 56.1938 41.7757 56.6158 41.7757C56.6158 41.2881 56.998 40.7332 56.4446 40.1676C55.9359 39.6771 54.7738 38.8356 54.5283 38.5461C55.3035 39.0877 56.2205 39.9533 56.7636 40.0926C57.0455 40.1756 57.3423 40.1928 57.6316 40.1426C57.921 40.0925 58.1954 39.9764 58.4344 39.803C58.1367 38.9109 58.5321 38.4979 56.492 37.6295C58.2578 38.2702 59.038 37.9538 59.6681 37.4527C59.536 37.1451 59.3455 36.867 59.1076 36.6343C58.8697 36.4016 58.5889 36.2189 58.2815 36.0967C58.7199 36.1203 59.1571 36.0313 59.5528 35.8377C59.9484 35.6442 60.2897 35.3524 60.5452 34.9894C60.0106 34.3789 59.2599 34.0089 58.4575 33.9604C59.7911 33.7591 60.8538 32.915 60.9775 31.9341ZM20.0636 38.5217C20.04 38.5217 20.04 38.5458 20.0163 38.5701C19.8661 38.5458 19.8661 38.369 19.8925 38.2188C19.9246 38.2198 19.9566 38.2136 19.9861 38.2006C20.0157 38.1877 20.042 38.1683 20.0634 38.1438L20.0871 38.1706L20.016 38.2188C20.04 38.3208 20.04 38.4201 20.0636 38.5217ZM20.5459 39.5751L20.301 39.4278C20.3161 39.4039 20.3358 39.3834 20.3591 39.3676C20.3824 39.3519 20.4086 39.3413 20.4362 39.3364C20.4637 39.3316 20.492 39.3327 20.5191 39.3396C20.5462 39.3466 20.5716 39.3592 20.5936 39.3767C20.6039 39.4466 20.5868 39.5179 20.5459 39.5751ZM21.2735 38.0044H21.1758C21.1705 37.9958 21.1643 37.9877 21.1573 37.9804C21.2022 37.9697 21.2499 37.9697 21.2918 37.9563C21.2881 37.9731 21.2819 37.9893 21.2737 38.0044H21.2735ZM35.2925 56.3683C34.6862 56.3683 34.2541 55.9799 34.5623 55.4383C34.6542 55.5532 34.7687 55.6473 34.8986 55.7143C35.0285 55.7813 35.1707 55.8197 35.3162 55.8272C35.2974 56.0069 35.2896 56.1876 35.2927 56.3683H35.2925ZM44.5124 55.4383C44.823 55.9799 44.3912 56.3683 43.7849 56.3683C43.7912 56.1865 43.7744 56.0046 43.7348 55.8272C43.8843 55.8232 44.0312 55.7863 44.1655 55.7192C44.2997 55.6521 44.4181 55.5563 44.5126 55.4383H44.5124ZM35.2664 22.1679C36.5387 21.8931 37.7192 21.2874 38.6926 20.4101C39.2639 20.4434 39.8367 20.446 40.4083 20.418C41.3699 21.2963 42.543 21.9001 43.8083 22.1679C43.0044 22.1679 41.5971 22.0929 41.4233 21.8921C41.4733 22.4065 42.5485 22.9881 43.2523 23.1488C42.7152 23.2288 42.1667 23.1555 41.6681 22.9372C41.9021 23.3134 42.2555 23.5971 42.6698 23.7411C42.3502 24.0814 41.9572 24.3414 41.5217 24.5004C41.0863 24.6595 40.6204 24.7133 40.1609 24.6576C40.298 24.8141 40.4695 24.9355 40.6614 25.0119C40.8533 25.0883 41.0603 25.1175 41.2654 25.0971C40.3267 26.5015 39.7337 28.1147 39.5362 29.8008L39.5307 29.7983L39.5283 29.8035C39.3394 28.1171 38.7515 26.5022 37.8149 25.0971C38.0175 25.1196 38.2223 25.0913 38.4116 25.0146C38.6009 24.938 38.7689 24.8154 38.9008 24.6576C38.4433 24.7129 37.9795 24.6588 37.5461 24.4997C37.1128 24.3406 36.722 24.0808 36.4048 23.7411C36.8198 23.5985 37.1736 23.3145 37.4063 22.937C36.9089 23.1563 36.3611 23.2296 35.8248 23.1486C36.5289 22.9879 37.617 22.4064 37.6644 21.8919C37.4803 22.0928 36.0729 22.1678 35.2666 22.1678L35.2664 22.1679ZM22.5887 37.6292C22.4595 37.6829 22.3093 37.7499 22.1907 37.8009V37.7661C22.312 37.7204 22.4622 37.6747 22.5887 37.6292ZM31.4841 44.2144C31.495 44.3528 31.5373 44.4867 31.6079 44.6055C31.2511 44.6291 30.9065 44.7469 30.608 44.9471C30.3095 45.1473 30.0674 45.423 29.9056 45.7473C29.4205 46.5754 29.9266 47.6446 29.7893 48.0869C29.7566 48.1757 29.7046 48.2558 29.637 48.3211C29.5695 48.3865 29.4883 48.4355 29.3995 48.4644C29.3108 48.4933 29.2167 48.5013 29.1244 48.4879C29.0321 48.4745 28.944 48.4401 28.8667 48.3871C28.9199 48.5932 29.0298 48.7796 29.1835 48.9244C29.3372 49.0692 29.5283 49.1665 29.7345 49.2047C29.9406 49.2429 30.1532 49.2206 30.3473 49.1403C30.5414 49.06 30.709 48.9251 30.8303 48.7514C30.8939 48.9777 30.9047 49.216 30.8617 49.4472C30.8187 49.6785 30.7232 49.8963 30.5827 50.0834C30.7777 50.1015 30.9738 50.0654 31.1502 49.979C31.3265 49.8927 31.4765 49.7592 31.5842 49.593C31.6233 49.7109 31.6482 49.8332 31.6582 49.9573C31.8447 49.8648 32.0092 49.7323 32.1405 49.5689C32.1995 49.78 32.2086 50.0023 32.1669 50.2176C31.9399 50.3681 31.704 50.5041 31.4604 50.6248C30.8365 50.9371 30.1769 51.1694 29.4967 51.3163C29.2123 51.3554 28.9231 51.2992 28.673 51.156C28.4228 51.0129 28.2254 50.7907 28.1106 50.5232C27.9365 49.9334 27.4569 49.746 27.0718 50.1078C26.9991 50.0545 26.9095 50.0306 26.8205 50.0405C26.7314 50.0505 26.6491 50.0937 26.5895 50.1617C26.523 50.0084 26.4313 49.8678 26.3182 49.746C26.378 49.606 26.3858 49.4487 26.3402 49.3033C26.2946 49.1579 26.1986 49.0342 26.0702 48.9553C26.0465 48.3631 25.6882 48.3631 25.5642 48.1619C25.4907 48.0363 25.4907 47.8833 25.6645 47.8593C25.6347 47.8204 25.5972 47.7882 25.5545 47.7647C25.5118 47.7412 25.4649 47.7269 25.4165 47.7227C25.454 47.5859 25.4376 47.4396 25.3707 47.315C25.3038 47.1903 25.1917 47.0971 25.0582 47.0552L22.1274 40.9098C22.1672 40.8662 22.196 40.8136 22.2116 40.7564C22.2271 40.6992 22.2289 40.6389 22.2168 40.5808C22.2046 40.5228 22.1789 40.4685 22.1418 40.4226C22.1047 40.3767 22.0573 40.3406 22.0036 40.3173V40.2691C22.0174 40.2293 22.0263 40.1879 22.03 40.1458C22.1091 40.1324 22.2041 40.1135 22.2884 40.0922C22.8684 39.9529 23.7722 39.0873 24.5524 38.5457C24.2781 38.8352 23.1421 39.6768 22.6361 40.1672C22.1643 40.6442 22.3619 41.1212 22.4385 41.5503L22.5494 41.7887C22.9787 41.8155 23.622 42.0783 24.1043 41.6759C24.2545 41.526 26.3682 38.8593 26.6503 38.5969C26.5421 38.8352 25.2062 40.5448 24.6024 41.526C24.1543 42.2658 24.8107 42.7562 24.8872 43.1823C25.3667 43.0323 26.0229 43.3216 26.3682 42.7321C26.703 42.1664 27.7282 40.1431 28.1106 39.575C27.9629 40.017 26.8742 42.3166 26.8008 42.5175C26.5421 43.2975 27.1959 43.4479 27.4567 43.965C27.8518 43.6754 28.5664 43.9007 28.8402 43.1582C29.0111 42.6568 29.4465 40.9097 29.6702 40.4433C29.6441 40.9605 29.4964 41.6518 29.3965 42.416C29.2961 43.1823 30.0024 43.1582 30.3716 43.6004C30.7299 43.2975 31.3863 43.3728 31.4837 42.6809C31.5838 42.0649 31.6075 40.5692 31.6075 40.5692C31.7079 40.6576 31.7579 40.6817 31.8686 40.7838C32.1134 40.4942 32.6227 40.4942 32.7938 40.1431C32.87 40.1672 32.8937 40.2181 32.9677 40.269C33.5237 41.2096 33.5711 43.0322 32.7938 43.6754C33.0246 43.6824 33.2547 43.6479 33.4737 43.5736C33.129 44.2894 32.362 44.5414 31.4841 44.2144ZM36.9611 52.8256C36.499 53.3979 36.1241 54.0374 35.8487 54.7229C35.3164 54.672 35.4167 54.0073 35.5906 53.6671C35.9489 52.9996 37.4065 52.1337 38.1364 51.2653C37.7818 51.8133 37.3891 52.3348 36.9611 52.8256ZM38.5425 54.0073C38.2332 55.2121 38.0964 56.456 38.1364 57.7005C37.1089 57.1592 37.6912 55.0606 38.0868 54.1576C38.6026 52.9536 38.9598 51.6856 39.1491 50.3866C39.4678 51.1315 38.7586 53.2139 38.5425 54.0073ZM40.9411 57.7005C40.988 56.4556 40.8503 55.2105 40.5326 54.0073C40.3191 53.2139 39.61 51.1315 39.9263 50.3866C40.1152 51.686 40.4733 52.9542 40.9912 54.1576C41.3863 55.0604 41.9663 57.1594 40.9411 57.7005ZM43.4869 53.6671C43.6611 54.0073 43.7612 54.672 43.2288 54.7229C42.951 54.0416 42.581 53.403 42.1296 52.8256C41.6916 52.3399 41.2941 51.818 40.9411 51.2653C41.6683 52.1337 43.1287 52.9996 43.4869 53.6671ZM43.3604 44.6725C42.3845 46.4864 41.0892 48.1024 39.539 49.4402C37.9885 48.1025 36.693 46.4864 35.717 44.6725C34.4458 41.9115 33.6848 38.9363 33.4718 35.8953C33.3933 34.9378 33.5071 33.974 33.8063 33.0625C34.8291 32.9954 35.8404 32.8047 36.8188 32.4944C37.8081 32.0741 38.7261 31.498 39.539 30.7872C40.352 31.4992 41.2711 32.0754 42.2619 32.4944C43.2393 32.8048 44.2496 32.9955 45.2714 33.0625C45.5706 33.974 45.6836 34.9379 45.6036 35.8953C45.3904 38.936 44.6301 41.911 43.3604 44.6725Z" fill="#163BFF"/>
</svg>
